<svg width="40" height="40" viewBox="0 0 40 40" fill="none" xmlns="http://www.w3.org/2000/svg">
<path d="M36.6667 1.66663H3.33335C2.41288 1.66663 1.66669 2.41282 1.66669 3.33329V36.6666C1.66669 37.5871 2.41288 38.3333 3.33335 38.3333H36.6667C37.5872 38.3333 38.3334 37.5871 38.3334 36.6666V3.33329C38.3334 2.41282 37.5872 1.66663 36.6667 1.66663Z" stroke="#FFAD01"/>
<path d="M1.66669 6.66663H38.3334V9.99996H1.66669V6.66663ZM1.66669 16.6666H38.3334V20H1.66669V16.6666ZM1.66669 26.6666H38.3334V30H1.66669V26.6666ZM10 8.33329H13.3334V38.3333H10V8.33329ZM20 8.33329H23.3334V38.3333H20V8.33329Z" fill="#FFAD01"/>
</svg>
