<svg width="65" height="65" viewBox="0 0 65 65" fill="none" xmlns="http://www.w3.org/2000/svg">
<circle cx="32.5" cy="32.5" r="32.5" fill="#FFAD01"/>
<path d="M18.4102 42.3633C18.4102 36.123 18.4102 29.9238 18.4102 23.6836C18.5215 23.6836 18.627 23.6836 18.7266 23.6836C21.5098 23.6836 24.293 23.6836 27.0703 23.6836C27.9668 23.6836 28.8398 23.8008 29.6895 24.082C31.5352 24.6973 32.6895 26.209 32.7422 28.1543C32.7598 28.7051 32.7187 29.2676 32.6133 29.8125C32.4082 30.8438 31.793 31.6055 30.8965 32.1387C30.7969 32.1973 30.6973 32.2559 30.5742 32.332C30.7852 32.4316 30.9668 32.5195 31.1484 32.6133C32.3379 33.2578 33.0117 34.2773 33.2461 35.5898C33.5039 37.0137 33.3223 38.3672 32.584 39.6328C31.7285 41.1035 30.4395 41.9531 28.7637 42.1875C28.0195 42.293 27.2695 42.3516 26.5195 42.3574C23.9414 42.375 21.3633 42.3633 18.791 42.3633C18.6738 42.3633 18.5625 42.3633 18.4102 42.3633ZM22.6172 39.082C24.1816 39.082 25.7168 39.1113 27.2461 39.0703C27.9902 39.0469 28.6582 38.7598 29.0918 38.0977C29.5313 37.418 29.5723 36.6621 29.4551 35.8945C29.3613 35.2793 29.0391 34.7754 28.459 34.5352C28.0195 34.3535 27.5332 34.2012 27.0586 34.1836C25.6348 34.1309 24.2109 34.1543 22.7871 34.1484C22.7344 34.1484 22.6758 34.1719 22.623 34.1836C22.6172 35.8242 22.6172 37.4531 22.6172 39.082ZM22.623 31.0371C22.7109 31.043 22.7754 31.0547 22.8457 31.0547C24.1055 31.0547 25.3594 31.0723 26.6191 31.043C27.0527 31.0313 27.4922 30.9434 27.9082 30.8203C28.4883 30.6445 28.9395 30.2754 29.0508 29.6484C29.1211 29.25 29.1328 28.834 29.0801 28.4355C28.9922 27.7324 28.5645 27.293 27.8672 27.1465C27.498 27.0703 27.1172 26.9824 26.7422 26.9707C25.4648 26.9355 24.1875 26.9414 22.9102 26.918C22.6641 26.9121 22.5996 26.9883 22.5996 27.2285C22.6113 28.4004 22.6055 29.5664 22.6055 30.7383C22.6055 30.8379 22.6172 30.9316 22.623 31.0371Z" fill="black"/>
<path d="M38.2441 36.082C38.2266 37.9921 39.3223 39.2519 41.0918 39.3808C41.918 39.4394 42.7207 39.3573 43.3711 38.7597C43.5996 38.5487 43.7637 38.2792 43.9629 38.0448C44.0273 37.9745 44.1211 37.8749 44.1973 37.8749C45.2988 37.8632 46.4004 37.8691 47.5312 37.8691C47.4902 38.4023 47.2969 38.8534 47.0391 39.2753C45.9668 41.0273 44.3789 41.9706 42.3516 42.1933C41.0273 42.3398 39.7383 42.1991 38.5078 41.6659C36.3926 40.7577 35.168 39.1757 34.875 36.8788C34.6699 35.2499 34.6992 33.6386 35.2441 32.08C35.9062 30.1816 37.2305 28.9335 39.1465 28.3476C40.7461 27.8613 42.3516 27.9257 43.916 28.5116C45.8613 29.2441 46.9277 30.7499 47.4609 32.6894C47.748 33.7265 47.7305 34.7929 47.7363 35.8593C47.7363 36.082 47.6133 36.082 47.4551 36.082C46.1953 36.082 44.9355 36.082 43.6758 36.082C41.9883 36.082 40.2949 36.082 38.6074 36.082C38.4961 36.082 38.3789 36.082 38.2441 36.082ZM44.1562 33.7499C44.0625 31.9511 42.8789 30.9023 41.0683 30.9374C39.2226 30.9726 38.4141 32.5077 38.332 33.7499C40.2656 33.7499 42.2051 33.7499 44.1562 33.7499Z" fill="black"/>
<path d="M37.5586 26.3203C37.5586 25.7109 37.5586 25.1133 37.5586 24.4922C40.002 24.4922 42.4219 24.4922 44.8711 24.4922C44.8711 25.1016 44.8711 25.7051 44.8711 26.3203C42.4277 26.3203 40.002 26.3203 37.5586 26.3203Z" fill="black"/>
</svg>
