<svg width="65" height="65" viewBox="0 0 65 65" fill="none" xmlns="http://www.w3.org/2000/svg">
<circle cx="32.5" cy="32.5" r="32.5" fill="#FFAD01"/>
<path d="M47.5898 33.0587C47.5898 35.0977 47.5488 37.1427 47.6016 39.1817C47.6895 42.7911 45.4219 45.5802 42.5332 46.8223C41.373 47.3204 40.1543 47.5841 38.8945 47.5841C34.9512 47.5899 31.002 47.6427 27.0586 47.5665C24.0879 47.5079 21.6445 46.2657 19.8926 43.8165C18.9727 42.5274 18.5332 41.0626 18.5332 39.4747C18.5332 35.2735 18.5332 31.0782 18.5332 26.877C18.5332 23.4493 20.2031 21.0528 23.168 19.4942C24.457 18.8204 25.8574 18.5333 27.3164 18.5274C31.1426 18.5274 34.9746 18.504 38.8008 18.5391C41.7715 18.5626 44.25 19.6993 46.0781 22.0899C47.0977 23.4259 47.5898 24.961 47.5898 26.6485C47.5898 28.7813 47.5898 30.92 47.5898 33.0587ZM20.6953 33.0587C20.6953 35.2091 20.6953 37.3536 20.6953 39.504C20.6953 40.4649 20.918 41.3673 21.416 42.1817C22.7227 44.3204 24.6973 45.3634 27.1465 45.4044C31.0781 45.463 35.0156 45.4278 38.9531 45.4161C39.9199 45.4161 40.8574 45.2169 41.7305 44.8009C44.1094 43.6641 45.4395 41.8536 45.4277 39.1348C45.4043 34.9747 45.4219 30.8145 45.4219 26.6544C45.4219 25.4766 45.0879 24.3985 44.3906 23.4493C43.043 21.627 41.1797 20.7306 38.9531 20.7071C35.0273 20.6602 31.1016 20.6895 27.1758 20.6954C26.3379 20.6954 25.5293 20.8653 24.7441 21.1583C22.5879 21.961 20.584 23.9942 20.6777 26.9884C20.748 29.0157 20.6953 31.0372 20.6953 33.0587Z" fill="black"/>
<path d="M33.0938 39.2695C29.3145 39.2695 26.2676 36.2578 26.2617 32.5078C26.2559 28.8164 29.3262 25.793 33.082 25.793C36.8496 25.7871 39.9082 28.8047 39.9141 32.5254C39.9141 36.2402 36.8613 39.2637 33.0938 39.2695ZM33.0938 37.1016C35.666 37.1016 37.752 35.0449 37.7461 32.5137C37.7402 30.0059 35.6543 27.9551 33.0938 27.9551C30.5215 27.9551 28.4238 30 28.4238 32.5254C28.4297 35.0566 30.5215 37.1074 33.0938 37.1016Z" fill="black"/>
<path d="M40.7051 23.7422C41.4961 23.7422 42.1406 24.416 42.1406 25.2422C42.1347 26.0684 41.4844 26.7363 40.6933 26.7305C39.914 26.7246 39.2754 26.0566 39.2754 25.248C39.2695 24.4219 39.914 23.7422 40.7051 23.7422Z" fill="black"/>
</svg>
