<svg width="65" height="65" viewBox="0 0 65 65" fill="none" xmlns="http://www.w3.org/2000/svg">
<circle cx="32.5" cy="32.5" r="32.5" fill="#FFAD01"/>
<path d="M28.166 44.8068C28.166 44.6662 28.166 44.5314 28.166 44.3967C28.166 38.0861 28.166 31.7814 28.166 25.4709C28.166 25.2951 28.1543 25.1545 28.4121 25.1545C30.2754 25.1662 32.1446 25.1603 34.0078 25.1603C34.0547 25.1603 34.1016 25.172 34.1778 25.1838C34.1778 26.0041 34.1778 26.8127 34.1778 27.6271C34.2012 27.633 34.2188 27.6447 34.2422 27.6506C34.4766 27.3459 34.6992 27.0295 34.9453 26.7306C35.6602 25.8517 36.5567 25.2072 37.6113 24.8205C38.1856 24.6095 38.8125 24.4806 39.416 24.4513C40.2481 24.4162 41.0977 24.4279 41.918 24.5685C43.2656 24.797 44.4551 25.3947 45.4395 26.3732C46.3711 27.2931 46.9863 28.4006 47.3203 29.6486C47.4961 30.3107 47.6074 30.9904 47.7129 31.6642C47.7832 32.133 47.8184 32.6135 47.8184 33.0822C47.8242 36.8908 47.8242 40.6994 47.8242 44.508C47.8242 44.6017 47.8184 44.6955 47.8125 44.8185C47.7012 44.8185 47.6074 44.8185 47.5137 44.8185C45.7149 44.8185 43.9219 44.8127 42.1231 44.8244C41.8242 44.8244 41.7715 44.7248 41.7715 44.4552C41.7774 40.9513 41.7891 37.4416 41.7656 33.9377C41.7598 33.3224 41.7012 32.6838 41.543 32.092C41.2559 31.0549 40.5996 30.3049 39.5567 29.924C38.6778 29.6017 37.7871 29.5431 36.8848 29.7717C35.8887 30.0236 35.2031 30.6857 34.6875 31.5588C34.2891 32.2326 34.2129 32.9767 34.2071 33.7209C34.1836 37.2775 34.1953 40.8283 34.1953 44.3849C34.1953 44.5197 34.1953 44.6545 34.1953 44.801C32.1738 44.8068 30.1875 44.8068 28.166 44.8068Z" fill="black"/>
<path d="M24.3926 35.0742C24.3926 38.1973 24.3867 41.3203 24.3984 44.4434C24.3984 44.7246 24.3398 44.8301 24.0293 44.8242C22.2422 44.8066 20.4551 44.8066 18.668 44.8242C18.375 44.8242 18.3105 44.7246 18.3105 44.4551C18.3164 38.1797 18.3164 31.8984 18.3105 25.623C18.3105 25.3711 18.3809 25.2832 18.6387 25.2832C20.4434 25.2949 22.248 25.2949 24.0586 25.2832C24.3398 25.2832 24.3926 25.3887 24.3926 25.6406C24.3926 28.7871 24.3926 31.9336 24.3926 35.0742Z" fill="black"/>
<path d="M21.2871 15.2813C23.2149 15.2345 24.3692 16.6349 24.375 18.3517C24.3809 20.1095 23.1504 21.422 21.2168 21.4161C19.418 21.4161 18.1465 20.127 18.1524 18.3048C18.1582 16.5997 19.3946 15.2228 21.2871 15.2813Z" fill="black"/>
</svg>
