<svg width="65" height="65" viewBox="0 0 65 65" fill="none" xmlns="http://www.w3.org/2000/svg">
<circle cx="32.5" cy="32.5" r="32.5" fill="#FFAD01"/>
<g clip-path="url(#clip0_128_949)">
<path d="M48.0059 44.2383C38.0332 44.2383 28.084 44.2383 18.1172 44.2383C18.1172 36.7852 18.1172 29.3438 18.1172 21.8848C28.0723 21.8848 38.0273 21.8848 48.0059 21.8848C48.0059 29.332 48.0059 36.7734 48.0059 44.2383ZM33.1406 35.5313C32.3437 34.8574 31.5469 34.1836 30.75 33.5098C29.5547 34.4707 28.3828 35.4141 27.2168 36.3574C25.8281 37.4766 24.4453 38.6074 23.0332 39.709C22.7871 39.9023 22.7285 40.0781 22.7285 40.3594C22.7402 41.4609 22.7344 42.5684 22.7344 43.6699C22.7344 43.7754 22.7344 43.875 22.7344 43.9922C29.748 43.9922 36.7207 43.9922 43.6992 43.9922C43.7109 43.9453 43.7227 43.916 43.7227 43.8926C43.7227 42.5332 43.7285 41.1797 43.7168 39.8203C43.7168 39.7148 43.6055 39.5801 43.5117 39.5156C41.2734 37.9219 39.0352 36.3398 36.7969 34.7578C36.2871 34.4004 35.7773 34.0371 35.2617 33.6738C34.5469 34.2949 33.8496 34.9043 33.1406 35.5313ZM33.0117 31.0547C33.627 30.6504 42.1641 22.4238 42.293 22.1191C36.2227 22.1191 30.1523 22.1191 24.1641 22.1191C27.0996 25.0781 30.0586 28.0723 33.0117 31.0547ZM35.7187 33.2637C38.3906 35.1328 41.0332 36.9844 43.7109 38.8535C43.7109 34.6641 43.7109 30.5332 43.7109 26.3437C41.0273 28.6641 38.3848 30.9492 35.7187 33.2637ZM22.752 39.1172C25.2832 37.0898 27.7734 35.1035 30.2754 33.1055C27.7617 30.9668 25.2773 28.8516 22.752 26.707C22.752 30.8672 22.752 34.9629 22.752 39.1172Z" fill="black"/>
</g>
<defs>
<clipPath id="clip0_128_949">
<rect width="30" height="30" fill="white" transform="translate(18 18)"/>
</clipPath>
</defs>
</svg>
